<?xml version="1.0" encoding="UTF-8"?>
<svg id="_레이어_1" data-name="레이어_1" xmlns="http://www.w3.org/2000/svg" version="1.1" viewBox="0 0 49 49">
  <!-- Generator: Adobe Illustrator 29.1.0, SVG Export Plug-In . SVG Version: 2.1.0 Build 142)  -->
  <defs>
    <style>
      .st0 {
        fill: #303030;
      }

      .st1 {
        fill: #ffd900;
      }
    </style>
  </defs>
  <rect class="st0" y="0" width="49" height="49" rx="5" ry="5"/>
  <path class="st1" d="M41,25.6c-1-.7-4.5-1.3-5.8-1.4,0,0,0,0,0,0l-14.1-9.7c-.3-.2-1.2-.9-2.3-.5-1.4.5-1.8,2.5-1.2,5.4-.6.3-1.3.6-1.6.7h-.2c-1,.3-2.1.5-3,0-.9-.5-1.8-1.8-2.2-2.3,0,0-.7-.8-1.7-.8s-2.1,1.2-2.2,2.8c-.1,1.2-.3,4.1-.3,4.3v6c-.4.5-.5,1.1-.5,2.2s.2,1.9.8,2.6c.5.6,1.4.7,2,.7s.3,0,.4,0h25.4c.1,0,2.6-.1,4.7-.9,2-.7,3.9-1.8,4.1-4.3.2-2.4-1-3.6-2.2-4.4ZM8.3,19.6c0-.8.5-1.2.5-1.2.2,0,.3.1.4.2.2.4,1.3,2,2.7,2.8,1.5.8,3,.5,4.2.3h.2c1.2-.3,3.5-1.6,3.8-1.8.4-.2.5-.8.3-1.2-.2-.4-.8-.5-1.2-.3,0,0,0,0,0,0-.4-1.9,0-2.9.1-3,.2,0,.6.2.6.2,0,0,0,0,.1,0l2.1,1.5-1.2,1.4c-.3.4-.2.9.1,1.2.2.1.3.2.5.2s.5-.1.7-.3l1.2-1.5,1.4,1-1.1,1.3c-.3.4-.3.9.1,1.2.2.1.4.2.5.2s.5-.1.7-.3l1.2-1.4,1.4,1-1,1.2c-.3.4-.2.9.1,1.2.2.1.3.2.5.2s.5-.1.7-.3l1.1-1.3,1.4,1-.9,1.1c-.3.4-.2.9.1,1.2.2.1.3.2.5.2s.5-.1.7-.3l1-1.2,1.4,1c-.9.8-1.7,1-2.5,1-.6,0-2-.4-2.7-.7-.7-.4-4.1-2.1-6-1.7-1.8.4-2.7,1.5-2.9,1.8l-2.9,3.2c-.5,0-1.2,0-1.9,0-.2-.8-.6-2.4-2-3.8-1.3-1.4-3.3-1.8-4.4-1.9,0-1,.2-2.6.2-3.3ZM11.3,26c.9,1,1.3,2,1.5,2.7-.5,0-1.1,0-1.6,0-1,0-1.7,0-2.1,0s-.8,0-1,0v-4.1c.9,0,2.3.4,3.3,1.4ZM38.5,32.8c-1.8.7-4.2.8-4.2.8H8.9c-.4,0-.9,0-1,0h0c-.3-.4-.3-.5-.3-1.5s.1-1.2.2-1.2h.1c.2-.2.3-.4,1.2-.4s1.1,0,2.1,0c1.5,0,3.8,0,5.6,0,0,0,0,0,0,0s0,0,0,0c0,0,.2,0,.3,0,1.2,0,2,0,2.2,0,.1,0,.5.1,1,.2,2,.5,5.9,1.4,7.3,1.5.5,0,1,0,1.6.1,1.5.1,3.1.3,4.3.1.4,0,.7,0,1.1,0,1.2,0,2.6-.1,4.8-.8.8-.3,1.5-.5,1.9-.6-.4.8-1.2,1.4-2.8,1.9ZM38.8,29.8c-2,.6-3.2.7-4.3.7-.4,0-.8,0-1.2,0-1.1.1-2.6,0-4-.1-.6,0-1.1,0-1.6-.1-1.4,0-5.4-1-7.1-1.4-.5-.1-.9-.2-1-.2-.1,0-.4,0-.9,0l1.9-2.1s0,0,0-.1c0,0,.6-.8,1.9-1.1,1-.2,3.4.7,4.9,1.5.2,0,2.3,1,3.5.9,1.1,0,2.4-.3,3.9-1.8,2.1.3,4.7.8,5.2,1.2.7.5,1.2,1,1.4,1.9-.3.1-1,.4-2.6.9Z"/>
</svg>